<svg width="57" height="37" fill="none" xmlns="http://www.w3.org/2000/svg"><path d="M14.45 36.25c-2.667 0-5.05-.717-7.15-2.15-2.067-1.467-3.683-3.533-4.85-6.2-1.133-2.667-1.7-5.8-1.7-9.4 0-3.6.567-6.733 1.7-9.4C3.617 6.433 5.233 4.383 7.3 2.95c2.1-1.467 4.483-2.2 7.15-2.2 2.667 0 5.033.733 7.1 2.2 2.1 1.433 3.717 3.483 4.85 6.15 1.167 2.667 1.75 5.8 1.75 9.4 0 3.6-.583 6.733-1.75 9.4-1.133 2.667-2.75 4.733-4.85 6.2-2.067 1.433-4.433 2.15-7.1 2.15zm0-2.35c2.2 0 4.133-.6 5.8-1.8 1.7-1.233 3.017-3 3.95-5.3.933-2.333 1.4-5.1 1.4-8.3 0-3.2-.467-5.95-1.4-8.25-.933-2.333-2.25-4.1-3.95-5.3-1.667-1.233-3.6-1.85-5.8-1.85-2.2 0-4.15.617-5.85 1.85-1.667 1.2-2.967 2.967-3.9 5.3-.933 2.3-1.4 5.05-1.4 8.25s.467 5.967 1.4 8.3c.933 2.3 2.233 4.067 3.9 5.3 1.7 1.2 3.65 1.8 5.85 1.8zm42.511-.2V36h-24.05v-1.8l14.8-14.7c1.934-1.933 3.234-3.583 3.9-4.95.7-1.4 1.05-2.833 1.05-4.3 0-2.233-.766-3.983-2.3-5.25-1.5-1.267-3.683-1.9-6.55-1.9-2.2 0-4.133.333-5.8 1-1.633.667-3.05 1.683-4.25 3.05l-1.8-1.6c1.334-1.533 3.017-2.717 5.05-3.55 2.067-.833 4.4-1.25 7-1.25 3.434 0 6.167.833 8.2 2.5 2.034 1.667 3.05 3.917 3.05 6.75 0 1.8-.4 3.517-1.2 5.15-.8 1.633-2.3 3.533-4.5 5.7l-12.9 12.85h20.3z" fill="#333"/></svg>