<svg width="56" height="37" fill="none" xmlns="http://www.w3.org/2000/svg"><path d="M14.45 36.25c-2.667 0-5.05-.717-7.15-2.15-2.067-1.467-3.683-3.533-4.85-6.2-1.133-2.667-1.7-5.8-1.7-9.4 0-3.6.567-6.733 1.7-9.4C3.617 6.433 5.233 4.383 7.3 2.95c2.1-1.467 4.483-2.2 7.15-2.2 2.667 0 5.033.733 7.1 2.2 2.1 1.433 3.717 3.483 4.85 6.15 1.167 2.667 1.75 5.8 1.75 9.4 0 3.6-.583 6.733-1.75 9.4-1.133 2.667-2.75 4.733-4.85 6.2-2.067 1.433-4.433 2.15-7.1 2.15zm0-2.35c2.2 0 4.133-.6 5.8-1.8 1.7-1.233 3.017-3 3.95-5.3.933-2.333 1.4-5.1 1.4-8.3 0-3.2-.467-5.95-1.4-8.25-.933-2.333-2.25-4.1-3.95-5.3-1.667-1.233-3.6-1.85-5.8-1.85-2.2 0-4.15.617-5.85 1.85-1.667 1.2-2.967 2.967-3.9 5.3-.933 2.3-1.4 5.05-1.4 8.25s.467 5.967 1.4 8.3c.933 2.3 2.233 4.067 3.9 5.3 1.7 1.2 3.65 1.8 5.85 1.8zm29.372-17.65c3.866.1 6.8 1.05 8.8 2.85 2.033 1.767 3.05 4.117 3.05 7.05 0 1.967-.467 3.717-1.4 5.25-.933 1.5-2.334 2.683-4.2 3.55-1.834.867-4.05 1.3-6.65 1.3-2.533 0-4.917-.417-7.15-1.25-2.233-.867-3.967-2.017-5.2-3.45l1.3-1.95c1.133 1.267 2.666 2.3 4.6 3.1 1.966.8 4.117 1.2 6.45 1.2 3.1 0 5.483-.683 7.15-2.05 1.666-1.4 2.5-3.3 2.5-5.7 0-2.433-.85-4.333-2.55-5.7-1.7-1.367-4.25-2.05-7.65-2.05h-2.2v-1.85L51.022 3.3h-18.65V1h21.95v1.8l-10.5 13.45z" fill="#333"/></svg>