<svg width="63" height="37" fill="none" xmlns="http://www.w3.org/2000/svg"><path d="M14.45 36.25c-2.667 0-5.05-.717-7.15-2.15-2.067-1.467-3.683-3.533-4.85-6.2-1.133-2.667-1.7-5.8-1.7-9.4 0-3.6.567-6.733 1.7-9.4C3.617 6.433 5.233 4.383 7.3 2.95c2.1-1.467 4.483-2.2 7.15-2.2 2.667 0 5.033.733 7.1 2.2 2.1 1.433 3.717 3.483 4.85 6.15 1.167 2.667 1.75 5.8 1.75 9.4 0 3.6-.583 6.733-1.75 9.4-1.133 2.667-2.75 4.733-4.85 6.2-2.067 1.433-4.433 2.15-7.1 2.15zm0-2.35c2.2 0 4.133-.6 5.8-1.8 1.7-1.233 3.017-3 3.95-5.3.933-2.333 1.4-5.1 1.4-8.3 0-3.2-.467-5.95-1.4-8.25-.933-2.333-2.25-4.1-3.95-5.3-1.667-1.233-3.6-1.85-5.8-1.85-2.2 0-4.15.617-5.85 1.85-1.667 1.2-2.967 2.967-3.9 5.3-.933 2.3-1.4 5.05-1.4 8.25s.467 5.967 1.4 8.3c.933 2.3 2.233 4.067 3.9 5.3 1.7 1.2 3.65 1.8 5.85 1.8zm48.41-7.6h-7.35V36h-2.5v-9.7H33.06v-1.85L52.06 1h2.85L36.26 24.05h16.8V15.5h2.45v8.55h7.35v2.25z" fill="#333"/></svg>